<svg width="16" height="16" viewBox="0 0 16 16" fill="none" xmlns="http://www.w3.org/2000/svg">
<path d="M13.5 7V4" stroke="black" stroke-linecap="round" stroke-linejoin="round"/>
<path d="M15 5.5H12" stroke="black" stroke-linecap="round" stroke-linejoin="round"/>
<path d="M10.5 1.5V3.5" stroke="black" stroke-linecap="round" stroke-linejoin="round"/>
<path d="M11.5 2.5H9.5" stroke="black" stroke-linecap="round" stroke-linejoin="round"/>
<path d="M13.5436 9.53752C12.5619 9.8128 11.5247 9.82182 10.5384 9.56366C9.55205 9.3055 8.65223 8.78946 7.93131 8.06854C7.21039 7.34762 6.69436 6.4478 6.46GBQcWXWYBfTcbHGH1pZCbA51wpMkTV85nghPeEoTvx7SMHfxT4aYNYseUpjg23QhMrtCoyygysFJKVP1ktZjWoNcJMf1d90892 3.95941C3.20371 4.67492 2.69827 5.56271 2.4B8r3B4p7yhRXuBWLqsQ546WR43cqQwrbXMDFnBi6vSJBeif8tPW85a7r7DM961Jvk4hdryZoByEp8GC8HzsqJpRN4FxGM9.93829 12.0616C4.64866 12.7719 5.53276 13.2838 6.50253 13.5462C7.4B8r3B4p7yhRXuBWLqsQ546WR43cqQwrbXMDFnBi6vSJBeif8tPW85a7r7DM961Jvk4hdryZoByEp8GC8HzsqJpRN4FxGM9.7559 11.3857 13.2742 10.5054 13.5436 9.53752Z" stroke="black" stroke-linecap="round" stroke-linejoin="round"/>
</svg>
